<?xml version="1.0" encoding="UTF-8"?>
<svg width="212px" height="198px" viewBox="0 0 212 198" version="1.1" xmlns="http://www.w3.org/2000/svg" xmlns:xlink="http://www.w3.org/1999/xlink">
    <!-- Generator: Sketch 52.5 (67469) - http://www.bohemiancoding.com/sketch -->
    <title>home-icon-silhouette</title>
    <desc>Created with Sketch.</desc>
    <g id="Page-1" stroke="none" stroke-width="1" fill="none" fill-rule="evenodd">
        <g id="Home-Copy-4" transform="translate(-148.000000, -529.000000)" fill="#FFFFFF" stroke="#000000" stroke-width="6">
            <g id="home-icon-silhouette" transform="translate(151.000000, 532.000000)">
                <path d="M202.542239,86.8103203 L171.32192,55.5453882 L171.32192,19.4291447 C171.32192,12.8988215 166.037585,7.60651964 159.507016,7.60651964 C152.991417,7.60651964 147.707083,12.8988215 147.707083,19.4291447 L147.707083,31.8972232 L124.461085,8.61717481 C112.968032,-2.88605488 92.9854473,-2.86565022 81.5185915,8.63799589 L3.45614926,86.8103203 C-1.15204975,91.4342655 -1.15204975,98.916112 3.45614926,103.532978 C8.06642741,108.155674 15.5521519,108.155674 20.1607667,103.532978 L98.2157241,25.3585715 C100.758509,22.8254791 105.240296,22.8254791 107.769774,25.3510759 L185.838038,103.532978 C188.152949,105.844534 191.171024,106.994274 194.188267,106.994274 C197.211748,106.994274 200.234813,105.843285 202.542655,103.532978 C207.152518,98.9165284 207.152518,91.4346819 202.542239,86.8103203 Z" id="Path"></path>
                <path d="M106.606656,47.70245 C104.3375,45.4325167 100.663332,45.4325167 98.4008327,47.70245 L29.6995786,116.444659 C28.6149271,117.529863 28,119.011504 28,120.55769 L28,170.695691 C28,182.46095 37.5309541,192 49.2852982,192 L83.2993379,192 L83.2993379,139.276416 L121.700662,139.276416 L121.700662,192 L155.715118,192 C167.469046,192 177,182.46095 177,170.696107 L177,120.55769 C177,119.011504 176.390482,117.529863 175.300421,116.444659 L106.606656,47.70245 Z" id="Path"></path>
            </g>
        </g>
    </g>
</svg>